<mxfile host="app.diagrams.net" agent="Mozilla/5.0 (Windows NT 10.0; Win64; x64; rv:139.0) Gecko/20100101 Firefox/139.0" version="28.0.6">
  <diagram name="Page-1" id="vwUs4SDPO9vyFETedJ_c">
    <mxGraphModel dx="2059" dy="1264" grid="0" gridSize="10" guides="1" tooltips="1" connect="1" arrows="1" fold="1" page="0" pageScale="1" pageWidth="850" pageHeight="1100" math="0" shadow="0">
      <root>
        <mxCell id="0" />
        <mxCell id="1" parent="0" />
        <mxCell id="-v9NiKOyGOXGEarku2j1-68" style="edgeStyle=none;curved=1;rounded=0;orthogonalLoop=1;jettySize=auto;html=1;fontSize=12;startSize=8;endSize=8;" edge="1" parent="1" source="-v9NiKOyGOXGEarku2j1-17" target="-v9NiKOyGOXGEarku2j1-55">
          <mxGeometry relative="1" as="geometry" />
        </mxCell>
        <mxCell id="-v9NiKOyGOXGEarku2j1-17" value="Sistem menghitung hasil bmi&amp;nbsp;dan menentukan kategori" style="rounded=1;whiteSpace=wrap;html=1;" vertex="1" parent="1">
          <mxGeometry x="-348" y="357" width="117" height="47" as="geometry" />
        </mxCell>
        <mxCell id="-v9NiKOyGOXGEarku2j1-27" style="edgeStyle=none;curved=1;rounded=0;orthogonalLoop=1;jettySize=auto;html=1;entryX=0.5;entryY=0;entryDx=0;entryDy=0;fontSize=12;startSize=8;endSize=8;" edge="1" parent="1" source="-v9NiKOyGOXGEarku2j1-18" target="-v9NiKOyGOXGEarku2j1-26">
          <mxGeometry relative="1" as="geometry" />
        </mxCell>
        <mxCell id="-v9NiKOyGOXGEarku2j1-18" value="Tampilkan splach screen" style="rounded=1;whiteSpace=wrap;html=1;" vertex="1" parent="1">
          <mxGeometry x="17" y="-183" width="86" height="33" as="geometry" />
        </mxCell>
        <mxCell id="-v9NiKOyGOXGEarku2j1-23" style="edgeStyle=none;curved=1;rounded=0;orthogonalLoop=1;jettySize=auto;html=1;entryX=0.5;entryY=0;entryDx=0;entryDy=0;fontSize=12;startSize=8;endSize=8;" edge="1" parent="1" source="-v9NiKOyGOXGEarku2j1-22" target="-v9NiKOyGOXGEarku2j1-18">
          <mxGeometry relative="1" as="geometry" />
        </mxCell>
        <mxCell id="-v9NiKOyGOXGEarku2j1-22" value="Mulai" style="ellipse;whiteSpace=wrap;html=1;aspect=fixed;" vertex="1" parent="1">
          <mxGeometry x="29" y="-318" width="62" height="62" as="geometry" />
        </mxCell>
        <mxCell id="-v9NiKOyGOXGEarku2j1-35" style="edgeStyle=none;curved=1;rounded=0;orthogonalLoop=1;jettySize=auto;html=1;entryX=0;entryY=0.5;entryDx=0;entryDy=0;fontSize=12;startSize=8;endSize=8;" edge="1" parent="1" source="-v9NiKOyGOXGEarku2j1-24" target="-v9NiKOyGOXGEarku2j1-34">
          <mxGeometry relative="1" as="geometry" />
        </mxCell>
        <mxCell id="-v9NiKOyGOXGEarku2j1-36" value="Tidak" style="edgeLabel;html=1;align=center;verticalAlign=middle;resizable=0;points=[];fontSize=12;" vertex="1" connectable="0" parent="-v9NiKOyGOXGEarku2j1-35">
          <mxGeometry x="-0.2305" y="-3" relative="1" as="geometry">
            <mxPoint as="offset" />
          </mxGeometry>
        </mxCell>
        <mxCell id="-v9NiKOyGOXGEarku2j1-37" style="edgeStyle=none;curved=1;rounded=0;orthogonalLoop=1;jettySize=auto;html=1;entryX=1;entryY=0.5;entryDx=0;entryDy=0;fontSize=12;startSize=8;endSize=8;" edge="1" parent="1" source="-v9NiKOyGOXGEarku2j1-24" target="-v9NiKOyGOXGEarku2j1-33">
          <mxGeometry relative="1" as="geometry" />
        </mxCell>
        <mxCell id="-v9NiKOyGOXGEarku2j1-38" value="ya" style="edgeLabel;html=1;align=center;verticalAlign=middle;resizable=0;points=[];fontSize=12;" vertex="1" connectable="0" parent="-v9NiKOyGOXGEarku2j1-37">
          <mxGeometry x="-0.0369" y="2" relative="1" as="geometry">
            <mxPoint as="offset" />
          </mxGeometry>
        </mxCell>
        <mxCell id="-v9NiKOyGOXGEarku2j1-24" value=" Pengguna Sudah Login?" style="rhombus;whiteSpace=wrap;html=1;" vertex="1" parent="1">
          <mxGeometry x="15" y="-34" width="78" height="85" as="geometry" />
        </mxCell>
        <mxCell id="-v9NiKOyGOXGEarku2j1-26" value="Periksa Sesi Login" style="rounded=1;whiteSpace=wrap;html=1;" vertex="1" parent="1">
          <mxGeometry x="11" y="-117" width="86" height="33" as="geometry" />
        </mxCell>
        <mxCell id="-v9NiKOyGOXGEarku2j1-28" style="edgeStyle=none;curved=1;rounded=0;orthogonalLoop=1;jettySize=auto;html=1;entryX=0.449;entryY=0.106;entryDx=0;entryDy=0;entryPerimeter=0;fontSize=12;startSize=8;endSize=8;" edge="1" parent="1" source="-v9NiKOyGOXGEarku2j1-26" target="-v9NiKOyGOXGEarku2j1-24">
          <mxGeometry relative="1" as="geometry" />
        </mxCell>
        <mxCell id="-v9NiKOyGOXGEarku2j1-29" value="Tampilkan Pesan Error" style="rounded=1;whiteSpace=wrap;html=1;" vertex="1" parent="1">
          <mxGeometry x="205" y="275" width="86" height="33" as="geometry" />
        </mxCell>
        <mxCell id="-v9NiKOyGOXGEarku2j1-46" style="edgeStyle=none;curved=1;rounded=0;orthogonalLoop=1;jettySize=auto;html=1;entryX=0.5;entryY=0;entryDx=0;entryDy=0;fontSize=12;startSize=8;endSize=8;" edge="1" parent="1" source="-v9NiKOyGOXGEarku2j1-30" target="-v9NiKOyGOXGEarku2j1-44">
          <mxGeometry relative="1" as="geometry" />
        </mxCell>
        <mxCell id="-v9NiKOyGOXGEarku2j1-30" value="validasi DB" style="rounded=1;whiteSpace=wrap;html=1;" vertex="1" parent="1">
          <mxGeometry x="142" y="367" width="86" height="33" as="geometry" />
        </mxCell>
        <mxCell id="-v9NiKOyGOXGEarku2j1-42" style="edgeStyle=none;curved=1;rounded=0;orthogonalLoop=1;jettySize=auto;html=1;fontSize=12;startSize=8;endSize=8;" edge="1" parent="1" source="-v9NiKOyGOXGEarku2j1-31" target="-v9NiKOyGOXGEarku2j1-30">
          <mxGeometry relative="1" as="geometry" />
        </mxCell>
        <mxCell id="-v9NiKOyGOXGEarku2j1-31" value="user tekan tombol login" style="rounded=1;whiteSpace=wrap;html=1;" vertex="1" parent="1">
          <mxGeometry x="197" y="152" width="86" height="33" as="geometry" />
        </mxCell>
        <mxCell id="-v9NiKOyGOXGEarku2j1-40" style="edgeStyle=none;curved=1;rounded=0;orthogonalLoop=1;jettySize=auto;html=1;fontSize=12;startSize=8;endSize=8;" edge="1" parent="1" source="-v9NiKOyGOXGEarku2j1-32" target="-v9NiKOyGOXGEarku2j1-31">
          <mxGeometry relative="1" as="geometry" />
        </mxCell>
        <mxCell id="-v9NiKOyGOXGEarku2j1-32" value="user input email &amp;amp; pw" style="rounded=1;whiteSpace=wrap;html=1;" vertex="1" parent="1">
          <mxGeometry x="199" y="61" width="86" height="33" as="geometry" />
        </mxCell>
        <mxCell id="-v9NiKOyGOXGEarku2j1-81" style="edgeStyle=none;curved=1;rounded=0;orthogonalLoop=1;jettySize=auto;html=1;entryX=1;entryY=0.5;entryDx=0;entryDy=0;fontSize=12;startSize=8;endSize=8;" edge="1" parent="1" source="-v9NiKOyGOXGEarku2j1-33" target="-v9NiKOyGOXGEarku2j1-78">
          <mxGeometry relative="1" as="geometry" />
        </mxCell>
        <mxCell id="-v9NiKOyGOXGEarku2j1-85" style="edgeStyle=none;curved=1;rounded=0;orthogonalLoop=1;jettySize=auto;html=1;entryX=1;entryY=0.5;entryDx=0;entryDy=0;fontSize=12;startSize=8;endSize=8;" edge="1" parent="1" source="-v9NiKOyGOXGEarku2j1-33" target="-v9NiKOyGOXGEarku2j1-77">
          <mxGeometry relative="1" as="geometry" />
        </mxCell>
        <mxCell id="-v9NiKOyGOXGEarku2j1-97" style="edgeStyle=none;curved=1;rounded=0;orthogonalLoop=1;jettySize=auto;html=1;entryX=0.5;entryY=0;entryDx=0;entryDy=0;fontSize=12;startSize=8;endSize=8;" edge="1" parent="1" source="-v9NiKOyGOXGEarku2j1-33" target="-v9NiKOyGOXGEarku2j1-71">
          <mxGeometry relative="1" as="geometry" />
        </mxCell>
        <mxCell id="-v9NiKOyGOXGEarku2j1-33" value="Tampilkan Halaman Utama" style="rounded=1;whiteSpace=wrap;html=1;" vertex="1" parent="1">
          <mxGeometry x="-304" y="-95" width="87" height="46" as="geometry" />
        </mxCell>
        <mxCell id="-v9NiKOyGOXGEarku2j1-39" style="edgeStyle=none;curved=1;rounded=0;orthogonalLoop=1;jettySize=auto;html=1;fontSize=12;startSize=8;endSize=8;" edge="1" parent="1" source="-v9NiKOyGOXGEarku2j1-34" target="-v9NiKOyGOXGEarku2j1-32">
          <mxGeometry relative="1" as="geometry" />
        </mxCell>
        <mxCell id="-v9NiKOyGOXGEarku2j1-53" style="edgeStyle=none;curved=1;rounded=0;orthogonalLoop=1;jettySize=auto;html=1;entryX=0;entryY=0.5;entryDx=0;entryDy=0;fontSize=12;startSize=8;endSize=8;" edge="1" parent="1" source="-v9NiKOyGOXGEarku2j1-34" target="-v9NiKOyGOXGEarku2j1-52">
          <mxGeometry relative="1" as="geometry" />
        </mxCell>
        <mxCell id="-v9NiKOyGOXGEarku2j1-34" value="Tampilkan Halaman Login" style="rounded=1;whiteSpace=wrap;html=1;" vertex="1" parent="1">
          <mxGeometry x="172" y="-17" width="87" height="46" as="geometry" />
        </mxCell>
        <mxCell id="-v9NiKOyGOXGEarku2j1-43" value="" style="rhombus;whiteSpace=wrap;html=1;" vertex="1" parent="1">
          <mxGeometry x="259" y="-284" width="80" height="80" as="geometry" />
        </mxCell>
        <mxCell id="-v9NiKOyGOXGEarku2j1-47" style="edgeStyle=none;curved=1;rounded=0;orthogonalLoop=1;jettySize=auto;html=1;fontSize=12;startSize=8;endSize=8;" edge="1" parent="1" source="-v9NiKOyGOXGEarku2j1-44" target="-v9NiKOyGOXGEarku2j1-33">
          <mxGeometry relative="1" as="geometry" />
        </mxCell>
        <mxCell id="-v9NiKOyGOXGEarku2j1-48" value="YA" style="edgeLabel;html=1;align=center;verticalAlign=middle;resizable=0;points=[];fontSize=12;" vertex="1" connectable="0" parent="-v9NiKOyGOXGEarku2j1-47">
          <mxGeometry x="-0.6938" y="-1" relative="1" as="geometry">
            <mxPoint as="offset" />
          </mxGeometry>
        </mxCell>
        <mxCell id="-v9NiKOyGOXGEarku2j1-44" value="Data Valid?" style="rhombus;whiteSpace=wrap;html=1;" vertex="1" parent="1">
          <mxGeometry x="51" y="218" width="80" height="80" as="geometry" />
        </mxCell>
        <mxCell id="-v9NiKOyGOXGEarku2j1-45" value="" style="rhombus;whiteSpace=wrap;html=1;" vertex="1" parent="1">
          <mxGeometry x="442" y="-295" width="80" height="80" as="geometry" />
        </mxCell>
        <mxCell id="-v9NiKOyGOXGEarku2j1-49" style="edgeStyle=none;curved=1;rounded=0;orthogonalLoop=1;jettySize=auto;html=1;entryX=0.395;entryY=0.121;entryDx=0;entryDy=0;entryPerimeter=0;fontSize=12;startSize=8;endSize=8;" edge="1" parent="1" source="-v9NiKOyGOXGEarku2j1-44" target="-v9NiKOyGOXGEarku2j1-29">
          <mxGeometry relative="1" as="geometry" />
        </mxCell>
        <mxCell id="-v9NiKOyGOXGEarku2j1-50" value="Tidak" style="edgeLabel;html=1;align=center;verticalAlign=middle;resizable=0;points=[];fontSize=12;" vertex="1" connectable="0" parent="-v9NiKOyGOXGEarku2j1-49">
          <mxGeometry x="-0.3132" relative="1" as="geometry">
            <mxPoint x="1" as="offset" />
          </mxGeometry>
        </mxCell>
        <mxCell id="-v9NiKOyGOXGEarku2j1-61" style="edgeStyle=none;curved=1;rounded=0;orthogonalLoop=1;jettySize=auto;html=1;fontSize=12;startSize=8;endSize=8;" edge="1" parent="1" source="-v9NiKOyGOXGEarku2j1-51" target="-v9NiKOyGOXGEarku2j1-60">
          <mxGeometry relative="1" as="geometry" />
        </mxCell>
        <mxCell id="-v9NiKOyGOXGEarku2j1-51" value="user input Nama, email, pw" style="rounded=1;whiteSpace=wrap;html=1;" vertex="1" parent="1">
          <mxGeometry x="-165" y="246" width="93" height="58" as="geometry" />
        </mxCell>
        <mxCell id="-v9NiKOyGOXGEarku2j1-52" value="Tampilkan Halaman Registrasi " style="rounded=1;whiteSpace=wrap;html=1;" vertex="1" parent="1">
          <mxGeometry x="-149" y="152" width="95" height="47" as="geometry" />
        </mxCell>
        <mxCell id="-v9NiKOyGOXGEarku2j1-54" style="edgeStyle=none;curved=1;rounded=0;orthogonalLoop=1;jettySize=auto;html=1;entryX=0.409;entryY=0.052;entryDx=0;entryDy=0;entryPerimeter=0;fontSize=12;startSize=8;endSize=8;" edge="1" parent="1" source="-v9NiKOyGOXGEarku2j1-52" target="-v9NiKOyGOXGEarku2j1-51">
          <mxGeometry relative="1" as="geometry" />
        </mxCell>
        <mxCell id="-v9NiKOyGOXGEarku2j1-70" style="edgeStyle=none;curved=1;rounded=0;orthogonalLoop=1;jettySize=auto;html=1;entryX=0.5;entryY=0;entryDx=0;entryDy=0;fontSize=12;startSize=8;endSize=8;" edge="1" parent="1" source="-v9NiKOyGOXGEarku2j1-55" target="-v9NiKOyGOXGEarku2j1-69">
          <mxGeometry relative="1" as="geometry" />
        </mxCell>
        <mxCell id="-v9NiKOyGOXGEarku2j1-55" value="simpan hasil ke DB" style="rounded=1;whiteSpace=wrap;html=1;" vertex="1" parent="1">
          <mxGeometry x="-282" y="427" width="86" height="33" as="geometry" />
        </mxCell>
        <mxCell id="-v9NiKOyGOXGEarku2j1-66" style="edgeStyle=none;curved=1;rounded=0;orthogonalLoop=1;jettySize=auto;html=1;fontSize=12;startSize=8;endSize=8;" edge="1" parent="1" source="-v9NiKOyGOXGEarku2j1-56" target="-v9NiKOyGOXGEarku2j1-57">
          <mxGeometry relative="1" as="geometry" />
        </mxCell>
        <mxCell id="-v9NiKOyGOXGEarku2j1-56" value="user input&amp;nbsp;Usia, Jenis Kelamin, Tinggi, dan Berat" style="rounded=1;whiteSpace=wrap;html=1;" vertex="1" parent="1">
          <mxGeometry x="-334" y="120" width="83" height="79" as="geometry" />
        </mxCell>
        <mxCell id="-v9NiKOyGOXGEarku2j1-57" value="user tekan tombol hitung BMI" style="rounded=1;whiteSpace=wrap;html=1;" vertex="1" parent="1">
          <mxGeometry x="-339" y="261.5" width="88" height="60" as="geometry" />
        </mxCell>
        <mxCell id="-v9NiKOyGOXGEarku2j1-58" value="User di halaman utama" style="rounded=1;whiteSpace=wrap;html=1;" vertex="1" parent="1">
          <mxGeometry x="-214" y="87" width="86" height="33" as="geometry" />
        </mxCell>
        <mxCell id="-v9NiKOyGOXGEarku2j1-63" style="edgeStyle=none;curved=1;rounded=0;orthogonalLoop=1;jettySize=auto;html=1;fontSize=12;startSize=8;endSize=8;" edge="1" parent="1" source="-v9NiKOyGOXGEarku2j1-59" target="-v9NiKOyGOXGEarku2j1-34">
          <mxGeometry relative="1" as="geometry" />
        </mxCell>
        <mxCell id="-v9NiKOyGOXGEarku2j1-59" value="Restore user baru ke DB" style="rounded=1;whiteSpace=wrap;html=1;" vertex="1" parent="1">
          <mxGeometry x="39" y="346" width="86" height="33" as="geometry" />
        </mxCell>
        <mxCell id="-v9NiKOyGOXGEarku2j1-62" style="edgeStyle=none;curved=1;rounded=0;orthogonalLoop=1;jettySize=auto;html=1;fontSize=12;startSize=8;endSize=8;" edge="1" parent="1" source="-v9NiKOyGOXGEarku2j1-60" target="-v9NiKOyGOXGEarku2j1-59">
          <mxGeometry relative="1" as="geometry" />
        </mxCell>
        <mxCell id="-v9NiKOyGOXGEarku2j1-60" value="user tekan tombol daftar" style="rounded=1;whiteSpace=wrap;html=1;" vertex="1" parent="1">
          <mxGeometry x="-126" y="330" width="86" height="33" as="geometry" />
        </mxCell>
        <mxCell id="-v9NiKOyGOXGEarku2j1-64" style="edgeStyle=none;curved=1;rounded=0;orthogonalLoop=1;jettySize=auto;html=1;entryX=0.407;entryY=0.091;entryDx=0;entryDy=0;entryPerimeter=0;fontSize=12;startSize=8;endSize=8;" edge="1" parent="1" source="-v9NiKOyGOXGEarku2j1-33" target="-v9NiKOyGOXGEarku2j1-58">
          <mxGeometry relative="1" as="geometry" />
        </mxCell>
        <mxCell id="-v9NiKOyGOXGEarku2j1-65" style="edgeStyle=none;curved=1;rounded=0;orthogonalLoop=1;jettySize=auto;html=1;entryX=0.434;entryY=-0.013;entryDx=0;entryDy=0;entryPerimeter=0;fontSize=12;startSize=8;endSize=8;" edge="1" parent="1" source="-v9NiKOyGOXGEarku2j1-58" target="-v9NiKOyGOXGEarku2j1-56">
          <mxGeometry relative="1" as="geometry" />
        </mxCell>
        <mxCell id="-v9NiKOyGOXGEarku2j1-67" style="edgeStyle=none;curved=1;rounded=0;orthogonalLoop=1;jettySize=auto;html=1;entryX=0.436;entryY=0.064;entryDx=0;entryDy=0;entryPerimeter=0;fontSize=12;startSize=8;endSize=8;" edge="1" parent="1" source="-v9NiKOyGOXGEarku2j1-57" target="-v9NiKOyGOXGEarku2j1-17">
          <mxGeometry relative="1" as="geometry" />
        </mxCell>
        <mxCell id="-v9NiKOyGOXGEarku2j1-69" value="sistem menampilkan hasil di UI" style="rounded=1;whiteSpace=wrap;html=1;" vertex="1" parent="1">
          <mxGeometry x="-160" y="404" width="101" height="46" as="geometry" />
        </mxCell>
        <mxCell id="-v9NiKOyGOXGEarku2j1-99" style="edgeStyle=none;curved=1;rounded=0;orthogonalLoop=1;jettySize=auto;html=1;entryX=0.5;entryY=0;entryDx=0;entryDy=0;fontSize=12;startSize=8;endSize=8;" edge="1" parent="1" source="-v9NiKOyGOXGEarku2j1-71" target="-v9NiKOyGOXGEarku2j1-98">
          <mxGeometry relative="1" as="geometry" />
        </mxCell>
        <mxCell id="-v9NiKOyGOXGEarku2j1-71" value="user tekan tombol history" style="rounded=1;whiteSpace=wrap;html=1;" vertex="1" parent="1">
          <mxGeometry x="-451" y="-27" width="94" height="50" as="geometry" />
        </mxCell>
        <mxCell id="-v9NiKOyGOXGEarku2j1-93" style="edgeStyle=none;curved=1;rounded=0;orthogonalLoop=1;jettySize=auto;html=1;entryX=0.5;entryY=0;entryDx=0;entryDy=0;fontSize=12;startSize=8;endSize=8;" edge="1" parent="1" source="-v9NiKOyGOXGEarku2j1-72" target="-v9NiKOyGOXGEarku2j1-91">
          <mxGeometry relative="1" as="geometry" />
        </mxCell>
        <mxCell id="-v9NiKOyGOXGEarku2j1-72" value="tekan tombol &quot;ubah foto&quot; dan pilih gambar baru" style="rounded=1;whiteSpace=wrap;html=1;" vertex="1" parent="1">
          <mxGeometry x="-913" y="-66" width="110" height="63" as="geometry" />
        </mxCell>
        <mxCell id="-v9NiKOyGOXGEarku2j1-89" style="edgeStyle=none;curved=1;rounded=0;orthogonalLoop=1;jettySize=auto;html=1;entryX=0.5;entryY=0;entryDx=0;entryDy=0;fontSize=12;startSize=8;endSize=8;" edge="1" parent="1" source="-v9NiKOyGOXGEarku2j1-73" target="-v9NiKOyGOXGEarku2j1-72">
          <mxGeometry relative="1" as="geometry" />
        </mxCell>
        <mxCell id="-v9NiKOyGOXGEarku2j1-73" value="ubah foto profil" style="rounded=1;whiteSpace=wrap;html=1;" vertex="1" parent="1">
          <mxGeometry x="-856" y="-140" width="78" height="45" as="geometry" />
        </mxCell>
        <mxCell id="-v9NiKOyGOXGEarku2j1-87" style="edgeStyle=none;curved=1;rounded=0;orthogonalLoop=1;jettySize=auto;html=1;entryX=1;entryY=0.5;entryDx=0;entryDy=0;fontSize=12;startSize=8;endSize=8;" edge="1" parent="1" source="-v9NiKOyGOXGEarku2j1-74" target="-v9NiKOyGOXGEarku2j1-73">
          <mxGeometry relative="1" as="geometry" />
        </mxCell>
        <mxCell id="-v9NiKOyGOXGEarku2j1-88" style="edgeStyle=none;curved=1;rounded=0;orthogonalLoop=1;jettySize=auto;html=1;entryX=0.75;entryY=0;entryDx=0;entryDy=0;fontSize=12;startSize=8;endSize=8;" edge="1" parent="1" source="-v9NiKOyGOXGEarku2j1-74" target="-v9NiKOyGOXGEarku2j1-75">
          <mxGeometry relative="1" as="geometry" />
        </mxCell>
        <mxCell id="-v9NiKOyGOXGEarku2j1-74" value="sistem ambil data profil dari DB" style="rounded=1;whiteSpace=wrap;html=1;" vertex="1" parent="1">
          <mxGeometry x="-729" y="-204" width="98" height="50" as="geometry" />
        </mxCell>
        <mxCell id="-v9NiKOyGOXGEarku2j1-95" style="edgeStyle=none;curved=1;rounded=0;orthogonalLoop=1;jettySize=auto;html=1;entryX=0.5;entryY=0;entryDx=0;entryDy=0;fontSize=12;startSize=8;endSize=8;" edge="1" parent="1" source="-v9NiKOyGOXGEarku2j1-75" target="-v9NiKOyGOXGEarku2j1-90">
          <mxGeometry relative="1" as="geometry" />
        </mxCell>
        <mxCell id="-v9NiKOyGOXGEarku2j1-75" value="ubah pw" style="rounded=1;whiteSpace=wrap;html=1;" vertex="1" parent="1">
          <mxGeometry x="-716" y="-69" width="83" height="42" as="geometry" />
        </mxCell>
        <mxCell id="-v9NiKOyGOXGEarku2j1-76" value="Tampilkan halaman profil" style="rounded=1;whiteSpace=wrap;html=1;" vertex="1" parent="1">
          <mxGeometry x="-589" y="-218" width="88" height="43" as="geometry" />
        </mxCell>
        <mxCell id="-v9NiKOyGOXGEarku2j1-84" style="edgeStyle=none;curved=1;rounded=0;orthogonalLoop=1;jettySize=auto;html=1;entryX=0.5;entryY=0;entryDx=0;entryDy=0;fontSize=12;startSize=8;endSize=8;" edge="1" parent="1" source="-v9NiKOyGOXGEarku2j1-77" target="-v9NiKOyGOXGEarku2j1-76">
          <mxGeometry relative="1" as="geometry" />
        </mxCell>
        <mxCell id="-v9NiKOyGOXGEarku2j1-77" value="user tekan ikon profil" style="rounded=1;whiteSpace=wrap;html=1;" vertex="1" parent="1">
          <mxGeometry x="-412" y="-231" width="93" height="48" as="geometry" />
        </mxCell>
        <mxCell id="-v9NiKOyGOXGEarku2j1-83" style="edgeStyle=none;curved=1;rounded=0;orthogonalLoop=1;jettySize=auto;html=1;entryX=0.5;entryY=0;entryDx=0;entryDy=0;fontSize=12;startSize=8;endSize=8;" edge="1" parent="1" source="-v9NiKOyGOXGEarku2j1-78" target="-v9NiKOyGOXGEarku2j1-82">
          <mxGeometry relative="1" as="geometry" />
        </mxCell>
        <mxCell id="-v9NiKOyGOXGEarku2j1-78" value="User tekan tombol reset" style="rounded=1;whiteSpace=wrap;html=1;" vertex="1" parent="1">
          <mxGeometry x="-488" y="199" width="97" height="40" as="geometry" />
        </mxCell>
        <mxCell id="-v9NiKOyGOXGEarku2j1-79" style="edgeStyle=none;curved=1;rounded=0;orthogonalLoop=1;jettySize=auto;html=1;exitX=0.75;exitY=1;exitDx=0;exitDy=0;fontSize=12;startSize=8;endSize=8;" edge="1" parent="1" source="-v9NiKOyGOXGEarku2j1-78" target="-v9NiKOyGOXGEarku2j1-78">
          <mxGeometry relative="1" as="geometry" />
        </mxCell>
        <mxCell id="-v9NiKOyGOXGEarku2j1-82" value="Sistem mengembalikan semua input ke nilai default" style="rounded=1;whiteSpace=wrap;html=1;" vertex="1" parent="1">
          <mxGeometry x="-528" y="396" width="125" height="55" as="geometry" />
        </mxCell>
        <mxCell id="-v9NiKOyGOXGEarku2j1-86" style="edgeStyle=none;curved=1;rounded=0;orthogonalLoop=1;jettySize=auto;html=1;entryX=0.608;entryY=0.042;entryDx=0;entryDy=0;entryPerimeter=0;fontSize=12;startSize=8;endSize=8;" edge="1" parent="1" source="-v9NiKOyGOXGEarku2j1-76" target="-v9NiKOyGOXGEarku2j1-74">
          <mxGeometry relative="1" as="geometry" />
        </mxCell>
        <mxCell id="-v9NiKOyGOXGEarku2j1-90" value="user input pw baru" style="rounded=1;whiteSpace=wrap;html=1;" vertex="1" parent="1">
          <mxGeometry x="-711" y="27" width="90" height="53" as="geometry" />
        </mxCell>
        <mxCell id="-v9NiKOyGOXGEarku2j1-91" value="Sistem simpan uri gambar ke DB" style="rounded=1;whiteSpace=wrap;html=1;" vertex="1" parent="1">
          <mxGeometry x="-920" y="40" width="106" height="51" as="geometry" />
        </mxCell>
        <mxCell id="-v9NiKOyGOXGEarku2j1-92" value="sistem update pw di db" style="rounded=1;whiteSpace=wrap;html=1;" vertex="1" parent="1">
          <mxGeometry x="-716" y="108" width="93" height="44" as="geometry" />
        </mxCell>
        <mxCell id="-v9NiKOyGOXGEarku2j1-96" style="edgeStyle=none;curved=1;rounded=0;orthogonalLoop=1;jettySize=auto;html=1;entryX=0.439;entryY=0.093;entryDx=0;entryDy=0;entryPerimeter=0;fontSize=12;startSize=8;endSize=8;" edge="1" parent="1" source="-v9NiKOyGOXGEarku2j1-90" target="-v9NiKOyGOXGEarku2j1-92">
          <mxGeometry relative="1" as="geometry" />
        </mxCell>
        <mxCell id="-v9NiKOyGOXGEarku2j1-98" value="Tampilkan halaman history" style="rounded=1;whiteSpace=wrap;html=1;" vertex="1" parent="1">
          <mxGeometry x="-525" y="48" width="88" height="43" as="geometry" />
        </mxCell>
        <mxCell id="-v9NiKOyGOXGEarku2j1-100" value="" style="rounded=1;whiteSpace=wrap;html=1;" vertex="1" parent="1">
          <mxGeometry x="-920" y="-274" width="120" height="60" as="geometry" />
        </mxCell>
        <mxCell id="-v9NiKOyGOXGEarku2j1-101" value="sistem tampilkan data berupa grafik dan daftar teks" style="rounded=1;whiteSpace=wrap;html=1;" vertex="1" parent="1">
          <mxGeometry x="-680" y="213" width="120" height="60" as="geometry" />
        </mxCell>
        <mxCell id="-v9NiKOyGOXGEarku2j1-104" style="edgeStyle=none;curved=1;rounded=0;orthogonalLoop=1;jettySize=auto;html=1;entryX=0.5;entryY=0;entryDx=0;entryDy=0;fontSize=12;startSize=8;endSize=8;" edge="1" parent="1" source="-v9NiKOyGOXGEarku2j1-102" target="-v9NiKOyGOXGEarku2j1-101">
          <mxGeometry relative="1" as="geometry" />
        </mxCell>
        <mxCell id="-v9NiKOyGOXGEarku2j1-102" value="sistem ambil data riwayat di db" style="rounded=1;whiteSpace=wrap;html=1;" vertex="1" parent="1">
          <mxGeometry x="-612" y="125" width="102" height="55" as="geometry" />
        </mxCell>
        <mxCell id="-v9NiKOyGOXGEarku2j1-103" style="edgeStyle=none;curved=1;rounded=0;orthogonalLoop=1;jettySize=auto;html=1;entryX=0.59;entryY=0.088;entryDx=0;entryDy=0;entryPerimeter=0;fontSize=12;startSize=8;endSize=8;" edge="1" parent="1" source="-v9NiKOyGOXGEarku2j1-98" target="-v9NiKOyGOXGEarku2j1-102">
          <mxGeometry relative="1" as="geometry" />
        </mxCell>
      </root>
    </mxGraphModel>
  </diagram>
</mxfile>
